<?xml version="1.0" encoding="UTF-8"?> <svg xmlns="http://www.w3.org/2000/svg" width="60" height="60" viewBox="0 0 60 60" fill="none"><circle cx="29.5718" cy="30.4282" r="29.5718" transform="rotate(-180 29.5718 30.4282)" fill="#4068FB"></circle><path d="M29.5002 29.5C32.1465 29.5 34.2918 27.3547 34.2918 24.7083C34.2918 22.0619 32.1465 19.9166 29.5002 19.9166C26.8538 19.9166 24.7085 22.0619 24.7085 24.7083C24.7085 27.3547 26.8538 29.5 29.5002 29.5Z" fill="white"></path><path d="M29.4998 31.8959C24.6986 31.8959 20.7886 35.1159 20.7886 39.0834C20.7886 39.3517 20.9994 39.5625 21.2677 39.5625H37.7319C38.0002 39.5625 38.2111 39.3517 38.2111 39.0834C38.2111 35.1159 34.3011 31.8959 29.4998 31.8959Z" fill="white"></path></svg> 