<?xml version="1.0" encoding="UTF-8"?> <svg xmlns="http://www.w3.org/2000/svg" width="19" height="19" viewBox="0 0 19 19" fill="none"><path d="M18 9.5C18 14.1944 14.1944 18 9.5 18C4.80558 18 1 14.1944 1 9.5C1 4.80558 4.80558 1 9.5 1C14.1944 1 18 4.80558 18 9.5Z" fill="#DC2B2E"></path><path d="M12.8588 6.84835C13.054 6.65309 13.054 6.33651 12.8588 6.14124C12.6635 5.94598 12.3469 5.94598 12.1517 6.14124L12.8588 6.84835ZM6.14124 12.1517C5.94598 12.3469 5.94598 12.6635 6.14124 12.8588C6.3365 13.054 6.65309 13.054 6.84835 12.8588L6.14124 12.1517ZM12.1517 12.8588C12.3469 13.054 12.6635 13.054 12.8588 12.8588C13.054 12.6635 13.054 12.3469 12.8588 12.1517L12.1517 12.8588ZM6.84835 6.14124C6.65309 5.94598 6.3365 5.94598 6.14124 6.14124C5.94598 6.3365 5.94598 6.65309 6.14124 6.84835L6.84835 6.14124ZM17.5 9.5C17.5 13.9183 13.9183 17.5 9.5 17.5V18.5C14.4706 18.5 18.5 14.4706 18.5 9.5H17.5ZM9.5 17.5C5.08172 17.5 1.5 13.9183 1.5 9.5H0.5C0.5 14.4706 4.52944 18.5 9.5 18.5V17.5ZM1.5 9.5C1.5 5.08172 5.08172 1.5 9.5 1.5V0.5C4.52944 0.5 0.5 4.52944 0.5 9.5H1.5ZM9.5 1.5C13.9183 1.5 17.5 5.08172 17.5 9.5H18.5C18.5 4.52944 14.4706 0.5 9.5 0.5V1.5ZM12.1517 6.14124L9.14645 9.14645L9.85355 9.85355L12.8588 6.84835L12.1517 6.14124ZM9.14645 9.14645L6.14124 12.1517L6.84835 12.8588L9.85355 9.85355L9.14645 9.14645ZM12.8588 12.1517L9.85355 9.14645L9.14645 9.85355L12.1517 12.8588L12.8588 12.1517ZM9.85355 9.14645L6.84835 6.14124L6.14124 6.84835L9.14645 9.85355L9.85355 9.14645Z" fill="white"></path></svg> 